<?xml version="1.0" standalone="no"?>
<!DOCTYPE svg PUBLIC "-//W3C//DTD SVG 20010904//EN"
 "http://www.w3.org/TR/2001/REC-SVG-20010904/DTD/svg10.dtd">
<svg version="1.0" xmlns="http://www.w3.org/2000/svg"
 width="260.000000pt" height="260.000000pt" viewBox="0 0 260.000000 260.000000"
 preserveAspectRatio="xMidYMid meet">
<metadata>
Created by potrace 1.11, written by Peter Selinger 2001-2013
</metadata>
<g transform="translate(0.000000,260.000000) scale(0.100000,-0.100000)"
fill="#000000" stroke="none">
<path d="M359 2580 c-38 -20 -80 -87 -74 -118 2 -9 4 -26 4 -38 1 -28 60 -94
91 -100 14 -3 61 -7 105 -9 72 -3 81 -5 103 -30 12 -15 21 -32 19 -38 -2 -6
-39 -11 -84 -13 -87 -3 -129 -18 -160 -57 -16 -20 -28 -24 -77 -26 -102 -2
-162 -55 -160 -141 2 -84 47 -129 142 -139 l57 -6 0 -302 0 -303 -105 0 c-116
0 -157 -13 -195 -64 -24 -33 -27 -110 -6 -150 20 -36 69 -65 122 -70 60 -6 74
-13 90 -43 33 -61 -1 -111 -83 -122 -65 -9 -101 -29 -129 -74 -33 -54 -19
-126 36 -177 l27 -25 448 -3 c435 -3 449 -3 455 -22 8 -26 62 -80 92 -91 23
-8 23 -10 8 -39 -24 -47 -48 -54 -190 -55 -154 -2 -195 -15 -225 -76 -26 -50
-25 -98 3 -140 48 -72 -3 -68 910 -68 786 0 821 1 857 19 71 36 96 114 59 187
-29 58 -67 76 -169 79 -47 1 -88 2 -91 3 -3 0 -5 45 -5 98 l1 97 43 9 c49 9
111 64 114 100 8 104 -32 162 -122 177 l-35 5 -1 145 c0 80 -4 161 -8 180 -15
74 -81 120 -173 120 -56 0 -63 2 -63 20 0 19 7 20 248 20 215 0 251 2 281 18
72 36 97 109 63 184 -34 77 -54 82 -344 82 l-248 1 0 143 0 142 185 0 c205 0
237 7 273 57 42 59 35 137 -15 185 -39 37 -60 40 -273 42 -182 1 -190 2 -210
23 -30 33 -74 53 -120 56 -46 2 -52 20 -20 55 25 26 9 24 156 26 100 2 127 6
155 22 70 41 92 134 47 200 -46 67 1 64 -931 64 -810 -1 -843 -2 -878 -20z"/>
</g>
</svg>
